<svg viewBox="0 0 969 770" xmlns="http://www.w3.org/2000/svg"><g fill="#fff"><path d="m237.8 278.5h-20.7v29.5q0 2.1-3.6 2.1t-3.6-2.1v-49.2c0-5.5 1.1-9.6 3.2-12.1s5.9-3.7 11-3.7h17.3c1.2 0 1.8 1.1 1.8 3.2s-.6 3.1-1.8 3.1h-17.3c-2.6 0-4.4.7-5.4 2.2s-1.6 3.9-1.6 7.3v13.4h20.7c1.2 0 1.8 1 1.8 3.1s-.6 3.2-1.8 3.2z"/><path d="m286.9 272.1v-4.5c0-4.7-2.8-7-8.3-7s-8.4 2.3-8.4 7v41.3q0 2.1-3.6 2.1t-3.6-2.1v-40.4c0-5 1.4-8.6 4.3-10.9s6.6-3.3 11.3-3.3c10.3 0 15.5 4.6 15.5 14v3.8c0 1.4-1.2 2-3.6 2s-3.6-.6-3.6-2z"/><path d="m351.1 268.5v28.2c0 5-1.8 8.6-5.3 10.9s-8.3 3.4-14.1 3.4-10.6-1.2-14.2-3.4-5.4-5.9-5.4-10.9v-28.2c0-5 1.8-8.6 5.3-10.9s8.3-3.3 14.2-3.3 10.6 1.1 14.2 3.3 5.3 5.9 5.3 10.9zm-7.2 29.1v-30c0-4.7-4.1-7-12.3-7s-12.3 2.3-12.3 7v30c0 4.7 4.1 7.1 12.3 7.1s12.3-2.4 12.3-7.1z"/><path d="m414.4 268.5v39.5q0 2.1-3.6 2.1t-3.6-2.1v-40.4c0-4.7-4.1-7-12.3-7s-12.3 2.3-12.3 7v40.4q0 2.1-3.6 2.1t-3.6-2.1v-39.5c0-5 1.8-8.6 5.3-10.9s8.3-3.3 14.1-3.3 10.7 1.1 14.2 3.3 5.4 5.9 5.4 10.9z"/><path d="m454 245.1v10.5h9.4c1.2 0 1.8 1.1 1.8 3.2s-.6 3.1-1.8 3.1h-9.4v37.2a10.7 10.7 0 0 0 1.3 5.3c.9 1.7 1.4 2.5 1.4 2.6s-.6 1.5-1.7 2.3a5.6 5.6 0 0 1 -2.9 1.2q-2 0-3.6-3.3a14.7 14.7 0 0 1 -1.7-7.2v-38.1h-7.2c-1.2 0-1.8-1-1.8-3.1s.6-3.2 1.8-3.2h7.2v-10.5q0-2.1 3.6-2.1t3.6 2.1z"/><path d="m523.5 268.3v2.7c0 5.1-1 8.6-3.1 10.5s-5.9 3.2-11.5 3.7l-17.6 1.7v10.7c0 4.7 3.9 7.1 11.7 7.1s13.3-2.1 13.3-6.2v-3.4q0-2.1 3.6-2.1t3.6 2.1v2.5c0 8.9-6.6 13.4-19.8 13.4-5.8 0-10.5-1.2-14.1-3.5s-5.5-5.8-5.5-10.8v-28.2c0-5 1.9-8.6 5.8-10.9s8.8-3.3 15-3.3 10.8 1 14 3.2 4.6 5.8 4.6 10.8zm-32.2-.7v13l16.9-1.7c3.5-.3 5.7-1.1 6.7-2.1s1.4-3 1.4-5.8v-3.4c0-4.7-4.1-7-12.5-7s-12.5 2.3-12.5 7z"/><path d="m585 268.5v39.5q0 2.1-3.6 2.1t-3.6-2.1v-40.4c0-4.7-4.1-7-12.3-7s-12.3 2.3-12.3 7v40.4q0 2.1-3.6 2.1t-3.6-2.1v-39.5c0-5 1.8-8.6 5.4-10.9s8.2-3.3 14.1-3.3 10.6 1.1 14.2 3.3 5.3 5.9 5.3 10.9z"/><path d="m646.5 239.7v57c0 5-1.8 8.6-5.3 10.9s-8.3 3.4-14.2 3.4-10.6-1.2-14.1-3.4-5.4-5.9-5.4-10.9v-26.9c0-5 1.8-8.6 5.3-10.8s8.3-3.4 14.2-3.4h7.8c1.2 0 1.8 1.1 1.8 3.2s-.6 3.1-1.8 3.1h-7.8c-8.2 0-12.3 2.3-12.3 7v28.7c0 4.7 4.1 7.1 12.3 7.1s12.3-2.4 12.3-7.1v-57.9q0-2.1 3.6-2.1t3.6 2.1z"/><path d="m216.2 383.1v42.7c0 4.6 4.4 7 13.2 7s13.2-2.4 13.2-7v-6.5q0-2.1 3.6-2.1t3.6 2.1v5.6c0 9.4-6.7 14.2-20.1 14.2-6.2 0-11.2-1.1-15-3.4s-5.7-5.9-5.7-10.8v-40.9q0-7.5 5.7-10.8c3.8-2.3 8.8-3.4 15-3.4 13.4 0 20.1 4.7 20.1 14.2v5.6q0 2.1-3.6 2.1t-3.6-2.1v-6.5c0-4.7-4.4-7-13.2-7s-13.2 2.3-13.2 7z"/><path d="m312.1 396.6v28.3c0 4.9-1.7 8.6-5.3 10.8s-8.2 3.4-14.1 3.4-10.6-1.1-14.2-3.4-5.3-5.9-5.3-10.8v-28.3c0-5 1.7-8.6 5.3-10.8s8.2-3.4 14.1-3.4 10.6 1.1 14.2 3.4 5.3 5.8 5.3 10.8zm-7.2 29.2v-30.1c0-4.7-4.1-7-12.2-7s-12.3 2.3-12.3 7v30.1c0 4.6 4.1 7 12.3 7s12.2-2.4 12.2-7z"/><path d="m375.4 396.6v39.5q0 2.1-3.6 2.1t-3.6-2.1v-40.4c0-4.7-4.1-7-12.3-7s-12.3 2.3-12.3 7v40.4q0 2.1-3.6 2.1t-3.6-2.1v-39.5c0-5 1.8-8.6 5.3-10.8s8.3-3.4 14.2-3.4 10.6 1.1 14.2 3.4 5.3 5.8 5.3 10.8z"/><path d="m397.9 383.7h6.3v-5.1c0-9.5 6.2-14.2 18.5-14.2h3.2c1.2 0 1.8 1 1.8 3.1s-.6 3.2-1.8 3.2h-3.2c-7.5 0-11.3 2.3-11.3 7v6h10.4c1.2 0 1.8 1.1 1.8 3.2s-.6 3.1-1.8 3.1h-10.4v57a22.1 22.1 0 0 1 -1.7 9.5c-1.1 2.5-2.3 3.7-3.6 3.7a5.6 5.6 0 0 1 -2.9-1.2c-1.1-.8-1.7-1.6-1.7-2.3a3.2 3.2 0 0 1 .7-1.3 18.9 18.9 0 0 0 2-9.3v-56.1h-6.3c-1.2 0-1.8-1-1.8-3.1s.6-3.2 1.8-3.2z"/><path d="m481 396.4v2.7c0 5.1-1.1 8.6-3.2 10.6s-5.9 3.1-11.5 3.6l-17.5 1.8v10.7c0 4.6 3.9 7 11.7 7s13.3-2.1 13.3-6.1v-3.5c0-1.3 1.2-2 3.6-2s3.6.7 3.6 2v2.6c0 8.8-6.6 13.3-19.8 13.3-5.8 0-10.6-1.2-14.2-3.4s-5.4-5.9-5.4-10.8v-28.3q0-7.5 5.7-10.8c3.9-2.3 8.9-3.4 15-3.4s10.9 1.1 14 3.2 4.7 5.8 4.7 10.8zm-32.2-.7v13.1l16.9-1.8q5.1-.5 6.6-2.1c1-1.1 1.5-3 1.5-5.8v-3.4c0-4.7-4.2-7-12.5-7s-12.5 2.3-12.5 7z"/><path d="m529.2 400.2v-4.5c0-4.7-2.8-7-8.4-7s-8.3 2.3-8.3 7v41.3q0 2.1-3.6 2.1t-3.6-2.1v-40.4c0-5 1.4-8.6 4.3-10.8s6.6-3.4 11.2-3.4c10.4 0 15.6 4.7 15.6 14v3.8q0 2.1-3.6 2.1t-3.6-2.1z"/><path d="m593.8 396.4v2.7c0 5.1-1 8.6-3.1 10.6s-6 3.1-11.5 3.6l-17.6 1.8v10.7c0 4.6 3.9 7 11.7 7s13.3-2.1 13.3-6.1v-3.5c0-1.3 1.2-2 3.6-2s3.6.7 3.6 2v2.6c0 8.8-6.6 13.3-19.8 13.3-5.8 0-10.5-1.2-14.1-3.4s-5.5-5.9-5.5-10.8v-28.3c0-5 1.9-8.6 5.8-10.8s8.8-3.4 15-3.4 10.8 1.1 14 3.2 4.6 5.8 4.6 10.8zm-32.2-.7v13.1l16.9-1.8c3.5-.3 5.7-1 6.7-2.1s1.4-3 1.4-5.8v-3.4c0-4.7-4.1-7-12.5-7s-12.5 2.3-12.5 7z"/><path d="m653.5 396.6v39.5q0 2.1-3.6 2.1t-3.6-2.1v-40.4c0-4.7-4.1-7-12.3-7s-12.3 2.3-12.3 7v40.4q0 2.1-3.6 2.1t-3.6-2.1v-39.5c0-5 1.8-8.6 5.3-10.8s8.3-3.4 14.2-3.4 10.6 1.1 14.2 3.4 5.3 5.8 5.3 10.8z"/><path d="m683.2 395.7v30.1c0 4.6 3.8 7 11.5 7s11.5-2.4 11.5-7v-3.8q0-2.1 3.6-2.1t3.6 2.1v2.9c0 4.9-1.7 8.6-5 10.8s-8 3.4-13.6 3.4-10.2-1.1-13.7-3.4-5.1-5.9-5.1-10.8v-28.3q0-7.5 5.1-10.8c3.5-2.3 8-3.4 13.7-3.4s10.2 1.1 13.6 3.4 5 5.8 5 10.8v2.9q0 2.1-3.6 2.1t-3.6-2.1v-3.8c0-4.7-3.8-7-11.5-7s-11.5 2.3-11.5 7z"/><path d="m772.7 396.4v2.7c0 5.1-1.1 8.6-3.2 10.6s-5.9 3.1-11.5 3.6l-17.6 1.8v10.7c0 4.6 3.9 7 11.7 7s13.4-2.1 13.4-6.1v-3.5c0-1.3 1.2-2 3.6-2s3.6.7 3.6 2v2.6c0 8.8-6.6 13.3-19.8 13.3-5.9 0-10.6-1.2-14.2-3.4s-5.5-5.9-5.5-10.8v-28.3c0-5 2-8.6 5.8-10.8s8.9-3.4 15-3.4 10.9 1.1 14 3.2 4.7 5.8 4.7 10.8zm-32.3-.7v13.1l17-1.8q5.1-.5 6.6-2.1c1-1.1 1.5-3 1.5-5.8v-3.4c0-4.7-4.2-7-12.5-7s-12.6 2.3-12.6 7z"/><path d="m247.1 514.2v1.5c0 3.5-2 7.6-5.8 12.3l-26.1 31.6h30.1c1.2 0 1.8 1 1.8 3.1s-.6 3.2-1.8 3.2h-38.1c-1.2 0-1.8-1.1-1.8-3.2a4.8 4.8 0 0 1 .8-2.9l28.6-34.6a42.2 42.2 0 0 0 3.9-5.5 9.1 9.1 0 0 0 1.2-4.4v-1.1c0-3.1-.6-5.3-1.6-6.6s-2.9-2-5.5-2h-21.7c-1.2 0-1.8-1.1-1.8-3.2s.6-3.1 1.8-3.1h21.7c5.2 0 8.9 1.2 11 3.6s3.3 6.1 3.3 11.3z"/><path d="m305.6 512.1v40.9c0 5-2 8.6-5.8 10.8s-9 3.4-15.4 3.4c-13.7 0-20.5-4.7-20.5-14.2v-40.9c0-5 1.9-8.6 5.8-10.8s9-3.4 15.3-3.4c13.7 0 20.6 4.7 20.6 14.2zm-34.5-.9v42.7a5.5 5.5 0 0 0 3.4 5.3l14.4-54.8-3.9-.2c-9.3 0-13.9 2.3-13.9 7zm27.3 42.7v-42.7q0-3.4-3.6-5.4l-14.5 54.9a21.3 21.3 0 0 0 4.1.2c9.3 0 14-2.3 14-7z"/><path d="m355.7 565.9h-30.6c-1.2 0-1.8-1.1-1.8-3.2s.6-3.1 1.8-3.1h11.7v-54h-11.7c-1.2 0-1.8-1.1-1.8-3.2s.6-3.1 1.8-3.1h13.5c2.3 0 3.7.4 4.4 1.4s1 2.6 1 5v53.9h11.7c1.2 0 1.8 1 1.8 3.1s-.6 3.2-1.8 3.2z"/><path d="m414.2 512.1v40.9c0 4.9-2 8.5-5.9 10.8s-8.9 3.4-14.8 3.4-10.9-1.1-14.7-3.4-5.7-5.9-5.7-10.8v-4c0-1.4 1.2-2 3.6-2s3.6.6 3.6 2v4.9c0 2.5 1.2 4.2 3.7 5.3a21.8 21.8 0 0 0 9.5 1.7 24.6 24.6 0 0 0 9.6-1.7c2.6-1.1 3.9-2.9 3.9-5.3v-14.8l-16.3-2.4c-3.1-.5-5.5-1-7.4-1.5a22.4 22.4 0 0 1 -5.3-2.3c-3.3-1.8-4.9-5.3-4.9-10.4v-10.4c0-4.9 1.9-8.5 5.9-10.8s8.8-3.4 14.8-3.4 10.9 1.1 14.7 3.4 5.7 5.9 5.7 10.8zm-33.9-.9v12a5 5 0 0 0 2.5 4.6c1.7 1.1 4.3 1.9 7.9 2.4l16.3 2.4v-21.4a5.5 5.5 0 0 0 -3.7-5.3 23.7 23.7 0 0 0 -9.5-1.7 24.6 24.6 0 0 0 -9.6 1.7c-2.6 1.2-3.9 2.9-3.9 5.3z"/><path d="m259 178a3.2 3.2 0 0 1 -2-.8l-157-141a3 3 0 0 1 4-4.4l157 141a3 3 0 0 1 .2 4.2 2.8 2.8 0 0 1 -2.2 1z"/><path d="m488 719a3.1 3.1 0 0 1 -2.3-1.1 2.9 2.9 0 0 1 .4-4.2l208-177a3 3 0 1 1 3.8 4.6l-208 177a2.6 2.6 0 0 1 -1.9.7z"/><path d="m933.9 233a3.5 3.5 0 0 1 -3.3-2.4c-9.1-25.1-25.7-44.3-48-55.6-24.7-12.5-55.3-15.2-90.9-8-70.2 14.1-84.1-3-100.1-22.8-12.3-15.2-26.3-32.4-72.9-37.2-40.1-4.1-73.3 15.3-105.4 34.1-24.3 14.3-49.4 29-77.1 32.9-31 4.4-62-5.8-94.6-31s-67.7-43.6-101-52.1c-30.1-7.7-59-8-86.1-.9-45.8 12.1-83 44.8-101.9 89.7a3.5 3.5 0 0 1 -6.5-2.7c19.8-47 58.7-81.1 106.6-93.7 28.2-7.5 58.4-7.2 89.6.8 34.3 8.8 69.1 26.7 103.6 53.4 68.9 53.3 115.1 26.2 163.9-2.4 33-19.4 67.2-39.4 109.6-35.1 49.5 5.2 64.4 23.6 77.6 39.8 15.3 18.8 27.3 33.6 93.3 20.3 37.2-7.5 69.3-4.6 95.5 8.6 23.9 12.2 41.7 32.8 51.4 59.6a3.6 3.6 0 0 1 -2.1 4.5z"/><path d="m946.7 622.7a3.6 3.6 0 0 1 -3.3-4.8c8.8-21.8 9.7-46.1 2.5-70.4-3.8-12.9-11.6-23.9-19.9-35.5-21.7-30.6-46.3-65.3-8.1-147.1a228.5 228.5 0 0 0 14.4-40 3.5 3.5 0 0 1 6.8 1.7 239.7 239.7 0 0 1 -14.9 41.2c-36.5 78.2-14.1 109.7 7.5 140.1 8.6 12.2 16.8 23.6 20.9 37.6 7.7 25.8 6.7 51.7-2.7 75a3.4 3.4 0 0 1 -3.2 2.2z"/><path d="m185.5 728.1c-7.5 0-14.9-.3-22.2-1-47.1-4.5-87.1-23.7-115.6-55.5-24-26.8-38.7-61.9-41.4-98.9a174.6 174.6 0 0 1 26.6-106.1c22.2-34.8 40.5-88.6 25.4-134.7a3.5 3.5 0 0 1 6.7-2.2c15.9 48.5-3.1 104.5-26.2 140.7a167.3 167.3 0 0 0 -25.5 101.8c2.6 35.4 16.7 69.1 39.6 94.7 27.3 30.5 65.7 48.9 111.1 53.2 52.9 5 113.1-8.8 178.9-41.1 4.5-2.2 9.6-5 15.4-8.2 29.8-16.5 74.9-41.5 133.1-34.2 20.2 2.5 34.4 12.5 49.5 23.2 18.5 13.1 37.6 26.6 70.1 26.6h2.1c20-.4 34.2-7.1 49.2-14.1 26.3-12.4 53.4-25.1 110.8-.8a169.6 169.6 0 0 0 31.3 10 3.5 3.5 0 1 1 -1.5 6.9 188.7 188.7 0 0 1 -32.5-10.4c-54.6-23.2-79.1-11.6-105.1.6-15.1 7.1-30.6 14.4-52.1 14.8h-2.2c-34.7 0-55.7-14.8-74.2-27.9-14.3-10.1-27.8-19.7-46.3-22-55.9-7-99.8 17.3-128.8 33.4-5.9 3.3-11 6.1-15.7 8.4-58 28.5-111.9 42.8-160.5 42.8z"/><path d="m56.5 205a49.5 49.5 0 1 1 -49.5 49.5 49.5 49.5 0 0 1 49.5-49.5m0-7a56.5 56.5 0 1 0 56.5 56.5 56.5 56.5 0 0 0 -56.5-56.5z"/><path d="m885.5 619a55.5 55.5 0 1 1 -55.5 55.5 55.6 55.6 0 0 1 55.5-55.5m0-7a62.5 62.5 0 1 0 62.5 62.5 62.5 62.5 0 0 0 -62.5-62.5z"/><path d="m940.5 256a21.5 21.5 0 1 1 -21.5 21.5 21.5 21.5 0 0 1 21.5-21.5m0-7a28.5 28.5 0 1 0 28.5 28.5 28.6 28.6 0 0 0 -28.5-28.5z"/><path d="m76 32a16 16 0 1 1 16-16 16 16 0 0 1 -16 16zm0-26a10 10 0 1 0 10 10 10 10 0 0 0 -10-10z"/><path d="m722 533a14 14 0 1 1 14-14 14 14 0 0 1 -14 14zm0-22a8 8 0 1 0 8 8 8 8 0 0 0 -8-8z"/><path d="m448 770a27 27 0 1 1 27-27 27 27 0 0 1 -27 27zm0-48a21 21 0 1 0 21 21 21 21 0 0 0 -21-21z"/></g></svg>